<svg width="1920" height="189" viewBox="0 0 1920 189" fill="none" xmlns="http://www.w3.org/2000/svg">
<g filter="url(#filter0_d_17_253)">
<path d="M186.118 74.1633C150.992 3.76793 46.4033 8.53343 0 19.071L0.5 189H963.997L1919.5 188.628L1920 74.4746C1795.46 9.29366 1666.2 58.7371 1616.14 91.7621C1533.11 31.7957 1452.15 66.7761 1422.04 91.7621C1281.54 -13.5702 1136.3 47.8737 1081.25 91.7621C1044.53 46.1355 987.781 65.7984 963.997 81.3332C884.962 9.89493 794.683 46.7873 759.423 74.1633C645.261 -29.6047 533.561 30.9266 491.981 74.1633C438.093 20.715 385.037 59.4976 365.245 85.57C294.592 24.2999 216.389 52.4363 186.118 74.1633Z" fill="white"/>
</g>
<defs>
<filter id="filter0_d_17_253" x="-4" y="0" width="1928" height="189" filterUnits="userSpaceOnUse" color-interpolation-filters="sRGB">
<feFlood flood-opacity="0" result="BackgroundImageFix"/>
<feColorMatrix in="SourceAlpha" type="matrix" values="0 0 0 0 0 0 0 0 0 0 0 0 0 0 0 0 0 0 127 0" result="hardAlpha"/>
<feOffset dy="-9"/>
<feGaussianBlur stdDeviation="2"/>
<feComposite in2="hardAlpha" operator="out"/>
<feColorMatrix type="matrix" values="0 0 0 0 0 0 0 0 0 0 0 0 0 0 0 0 0 0 0.25 0"/>
<feBlend mode="normal" in2="BackgroundImageFix" result="effect1_dropShadow_17_253"/>
<feBlend mode="normal" in="SourceGraphic" in2="effect1_dropShadow_17_253" result="shape"/>
</filter>
</defs>
</svg>
