<svg width="1920" height="142" viewBox="0 0 1920 142" fill="none" xmlns="http://www.w3.org/2000/svg" xmlns:xlink="http://www.w3.org/1999/xlink">
<rect width="1920" height="142" fill="url(#pattern0_23_261)"/>
<defs>
<pattern id="pattern0_23_261" patternUnits="userSpaceOnUse" patternTransform="matrix(2078 0 0 142 0 0)" preserveAspectRatio="none" viewBox="0 0 2078 142" width="1" height="1">
<g id="pattern0_23_261_inner">
<g clip-path="url(#clip0_23_261)">
<path d="M1392 142.058H2089.08V1H1392V142.058Z" fill="#7C4F3F"/>
<path d="M2080.47 113.433H2068.58V119.29H2044.78V105.725H2007.12V113.433H1995.23V106.524H1993.86V124.137H1970.06V105.725H1937.09V120.969H1925.19V105.725H1898.23V113.433H1886.33V119.29H1862.54V105.725H1842.04V106.524H1840.02V124.137H1816.23V120.969H1804.33V105.725H1777.37V113.433H1765.47V105.725H1757.53V120.969H1733.74V105.725H1723.67V120.969H1699.87V105.725H1676.11V113.433H1664.21V106.524H1662.84V124.137H1639.05V105.725H1606.07V120.969H1594.18V105.725H1567.21V113.433H1555.31V119.29H1531.52V105.725H1511.02V106.524H1498.28V124.137H1474.49V120.969H1462.59V105.725H1435.63V113.433H1423.73V105.725H1415.79V120.969H1392V142.058H2089.08V105.725H2080.47V113.433Z" fill="#88543F"/>
<path d="M2065.29 88.1115H2057.34V95.8191H2045.45V88.1115H2018.49V103.349H2006.59V106.524H1995.23V113.433H2007.12V105.725H2044.78V119.29H2068.58V113.433H2080.47V105.725H2089.08V104.1V103.349H2065.29V88.1115Z" fill="#533134"/>
<path d="M1415.79 105.725H1423.73V113.433H1435.63V105.725H1462.59V120.969H1474.49V124.137H1498.28V106.524H1487.23V88.1115H1485.85V95.8191H1473.95V88.1115H1436.3V101.677H1412.5V95.8191H1400.61V88.1115H1392V104.1V105.725V120.969H1415.79V105.725Z" fill="#533134"/>
<path d="M1676.11 113.433V105.725H1699.87V120.969H1723.67V105.725H1733.74V120.969H1757.53V105.725H1765.47V113.433H1777.37V105.725H1804.33V120.969H1816.23V124.137H1840.02V106.524H1818.25V88.1115H1816.87V95.8191H1804.97V88.1115H1781.21V103.349H1757.41V88.1115H1747.34V103.349H1723.55V88.1115H1715.61V95.8191H1703.71V88.1115H1676.75V103.349H1664.85V106.524H1664.21V113.433H1676.11Z" fill="#533134"/>
<path d="M1531.52 119.29H1555.31V113.433H1567.21V105.725H1594.18V120.969H1606.07V105.725H1639.05V124.137H1662.84V106.524H1641.06V88.1115H1618.54V101.677H1594.75V95.8191H1582.85V88.1115H1555.89V103.349H1543.99V88.1115H1511.02V105.725H1531.52V119.29Z" fill="#533134"/>
<path d="M1862.54 119.29H1886.33V113.433H1898.23V105.725H1925.19V120.969H1937.09V105.725H1970.06V124.137H1993.86V106.524H1982.79V88.1115H1949.56V101.677H1925.76V95.8191H1913.87V88.1115H1886.9V103.349H1875.01V88.1115H1842.04V105.725H1862.54V119.29Z" fill="#533134"/>
<path d="M2080.47 76.5126H2068.58V82.3701H2044.78V70.894V68.805H2007.12V76.5126H1995.23V68.805H1993.86V75.7343V87.2104H1970.06V75.7343V68.805H1937.09V72.5666V84.0427H1925.19V72.5666V68.805H1898.23V76.5126H1886.33V82.3701H1862.54V70.894V68.805H1840.02V75.7343V87.2104H1816.23V84.0427H1804.33V72.5666V68.805H1777.37V76.5126H1765.47V68.805H1757.53V72.5666V84.0427H1733.74V72.5666V68.805H1723.67V72.5666V84.0427H1699.87V72.5666V68.805H1676.11V76.5126H1664.21V68.805H1662.84V75.7343V87.2104H1639.05V75.7343V68.805H1606.07V72.5666V84.0427H1594.18V72.5666V68.805H1567.21V76.5126H1555.31V82.3701H1531.52V70.894V68.805H1498.28V75.7343V87.2104H1474.49V84.0427H1462.59V72.5666V68.805H1435.63V76.5126H1423.73V68.805H1415.79V72.5666V84.0427H1392V84.1451V88.1115H1400.61V95.8191H1412.5V101.677H1436.3V88.1115H1473.95V95.8191H1485.85V88.1115H1487.23V106.524H1498.28H1511.02V105.725V88.1115H1543.99V103.349H1555.89V88.1115H1582.85V95.8191H1594.75V101.677H1618.54V88.1115H1641.06V106.524H1662.84H1664.21H1664.85V103.349H1676.75V88.1115H1703.71V95.8191H1715.61V88.1115H1723.55V103.349H1747.34V88.1115H1757.41V103.349H1781.21V88.1115H1804.97V95.8191H1816.87V88.1115H1818.25V106.524H1840.02H1842.04V105.725V88.1115H1875.01V103.349H1886.9V88.1115H1913.87V95.8191H1925.76V101.677H1949.56V88.1115H1982.79V106.524H1993.86H1995.23H2006.59V103.349H2018.49V88.1115H2045.45V95.8191H2057.34V88.1115H2065.29V103.349H2089.08V88.1115V68.805H2080.47V76.5126Z" fill="#7C4F3F"/>
<path d="M1567.21 57.3289V65.0365H1555.31V70.894H1531.52V82.3701H1555.31V76.5126H1567.21V68.805H1594.18V57.3289H1567.21Z" fill="#87553F"/>
<path d="M1898.23 57.3289V65.0365H1886.33V70.894H1862.54V82.3701H1886.33V76.5126H1898.23V68.805H1925.19V57.3289H1898.23Z" fill="#87553F"/>
<path d="M2080.47 65.0366H2068.58V70.8941H2044.78V82.3701H2068.58V76.5126H2080.47V68.805H2089.08V66.5317V62.5652V59.3975H2080.47V65.0366Z" fill="#87553F"/>
<path d="M1937.09 72.5667V84.0427H1925.19V72.5667H1937.09Z" fill="#87553F"/>
<path d="M1757.53 72.5667V84.0427H1733.74V72.5667H1757.53Z" fill="#87553F"/>
<path d="M1765.47 68.805V76.5126H1777.37V68.805H1804.33V57.3289H1781.21V59.3975H1777.37V65.0365H1765.47V59.3975H1757.53V68.805H1765.47Z" fill="#87553F"/>
<path d="M1699.87 84.0427H1723.67V72.5667H1699.87V84.0427Z" fill="#87553F"/>
<path d="M1816.23 72.5667H1804.33V84.0427H1816.23V87.2104H1840.02V75.7344H1816.23V72.5667Z" fill="#87553F"/>
<path d="M1415.79 72.5667V84.0427H1392V72.5667H1415.79Z" fill="#87553F"/>
<path d="M1970.06 68.805V57.3289H1949.56V57.7249H1937.09V68.805H1970.06Z" fill="#87553F"/>
<path d="M1995.23 68.805V76.5126H2007.12V68.805H2044.78V57.3289H2018.49V59.3975H2007.12V65.0365H1995.23V62.5652H1993.85V68.805H1995.23Z" fill="#87553F"/>
<path d="M1993.85 75.7343V87.2104H1970.06V75.7343H1993.85Z" fill="#87553F"/>
<path d="M1862.54 68.805V57.3289H1842.04V62.5652H1840.02V68.805H1862.54Z" fill="#87553F"/>
<path d="M1733.74 59.3975V68.805H1723.67V59.3975H1733.74Z" fill="#87553F"/>
<path d="M1531.52 68.805V57.3289H1511.02V62.5652H1498.28V68.805H1531.52Z" fill="#87553F"/>
<path d="M1474.49 72.5667H1462.59V84.0427H1474.49V87.2104H1498.28V75.7344H1474.49V72.5667Z" fill="#87553F"/>
<path d="M1423.73 68.805V76.5126H1435.63V68.805H1462.59V57.3289H1436.3V57.7249H1435.63V65.0365H1423.73V57.7249H1415.79V68.805H1423.73Z" fill="#87553F"/>
<path d="M1639.05 68.805V57.3289H1618.54V57.7249H1606.07V68.805H1639.05Z" fill="#87553F"/>
<path d="M1606.07 72.5667V84.0427H1594.18V72.5667H1606.07Z" fill="#87553F"/>
<path d="M1664.21 68.805V76.5126H1676.11V68.805H1699.87V57.3289H1676.75V59.3975H1676.11V65.0365H1664.21V62.5652H1662.84V68.805H1664.21Z" fill="#87553F"/>
<path d="M1662.84 75.7343V87.2104H1639.05V75.7343H1662.84Z" fill="#87553F"/>
<path d="M1804.33 68.805V72.5666H1816.23V75.7343H1840.02V68.805V62.5652H1818.25V44.1598H1816.87V51.8674H1804.97V44.1598H1781.21V57.3289H1804.33V68.805Z" fill="#54B847"/>
<path d="M1862.54 68.805V70.894H1886.33V65.0365H1898.23V57.3289H1925.19V68.805V72.5666H1937.09V68.805V57.7249H1925.76V51.8674H1913.87V44.1598H1886.9V59.3975H1875.01V44.1598H1842.04V57.3289H1862.54V68.805Z" fill="#54B847"/>
<path d="M2044.78 68.805V70.894H2068.58V65.0365H2080.47V59.3975H2065.29V44.1598H2057.34V51.8674H2045.45V44.1598H2018.49V57.3289H2044.78V68.805Z" fill="#54B847"/>
<path d="M1699.87 68.805V72.5666H1723.67V68.805V59.3975H1723.55V44.1598H1715.61V51.8674H1703.71V44.1598H1676.75V57.3289H1699.87V68.805Z" fill="#54B847"/>
<path d="M1970.06 68.805V75.7343H1993.85V68.805V62.5652H1982.79V44.1598H1949.56V57.3289H1970.06V68.805Z" fill="#54B847"/>
<path d="M1639.05 68.805V75.7343H1662.84V68.805V62.5652H1641.06V44.1598H1618.54V57.3289H1639.05V68.805Z" fill="#54B847"/>
<path d="M1462.59 68.805V72.5666H1474.49V75.7343H1498.28V68.805V62.5652H1487.23V44.1598H1485.85V51.8674H1473.95V44.1598H1436.3V57.3289H1462.59V68.805Z" fill="#54B847"/>
<path d="M1531.52 68.805V70.894H1555.31V65.0365H1567.21V57.3289H1594.18V68.805V72.5666H1606.07V68.805V57.7249H1594.75V51.8674H1582.85V44.1598H1555.89V59.3975H1543.99V44.1598H1511.02V57.3289H1531.52V68.805Z" fill="#54B847"/>
<path d="M2007.12 65.0366V59.3975H2006.59V62.5652H1995.23V65.0366H2007.12Z" fill="#54B847"/>
<path d="M1733.74 72.5666H1757.53V68.805V59.3975H1757.41V44.1598H1747.34V59.3975H1733.74V68.805V72.5666Z" fill="#54B847"/>
<path d="M1777.37 59.3975V65.0366H1765.47V59.3975H1777.37Z" fill="#54B847"/>
<path d="M1435.63 57.7249V65.0365H1423.73V57.7249H1435.63Z" fill="#54B847"/>
<path d="M1415.79 68.805V57.7249H1412.5V51.8674H1400.61V44.1598H1392V44.9517V47.2182V57.3289V62.5652V68.805V72.5666H1415.79V68.805Z" fill="#54B847"/>
<path d="M1676.11 65.0366V59.3975H1664.85V62.5652H1664.21V65.0366H1676.11Z" fill="#54B847"/>
<path d="M1803.72 12.2986H1787.93H1772.13H1756.33H1740.54H1724.74H1708.95H1693.16H1677.37H1661.56V1H1392V14.1691V25.6452V35.749V44.1598H1400.61V51.8674H1412.5V57.7249H1415.79H1423.73H1435.63H1436.3V57.3289V44.1598H1473.95V51.8674H1485.85V44.1598H1487.23V62.5652H1498.28H1511.02V57.3289V44.1598H1543.99V59.3975H1555.89V44.1598H1582.85V51.8674H1594.75V57.7249H1606.07H1618.54V57.3289V44.1598H1641.06V62.5652H1662.84H1664.21H1664.85V59.3975H1676.11H1676.75V57.3289V44.1598H1703.71V51.8674H1715.61V44.1598H1723.55V59.3975H1723.67H1733.74H1747.34V44.1598H1757.41V59.3975H1757.53H1765.47H1777.37H1781.21V57.3289V44.1598H1804.97V51.8674H1816.87V44.1598H1818.25V62.5652H1840.02H1842.04V57.3289V44.1598H1875.01V59.3975H1886.9V44.1598H1913.87V51.8674H1925.76V57.7249H1937.09H1949.56V57.3289V44.1598H1982.79V62.5652H1993.86H1995.23H2006.59V59.3975H2007.12H2018.49V57.3289V44.1598H2045.45V51.8674H2057.34V44.1598H2065.29V59.3975H2080.47H2089.08V57.3289V44.9517V44.1598V25.6452V22.5799V14.1691V1H1819.51V12.2986H1803.72Z" fill="#7AC042"/>
</g>
<g clip-path="url(#clip1_23_261)">
<path d="M695.76 141.194H1392.84V0.136536H695.76V141.194Z" fill="#7C4F3F"/>
<path d="M1384.23 112.569H1372.34V118.427H1348.54V104.862H1310.88V112.569H1298.99V105.66H1297.62V123.274H1273.82V104.862H1240.85V120.106H1228.95V104.862H1201.99V112.569H1190.09V118.427H1166.3V104.862H1145.8V105.66H1143.78V123.274H1119.99V120.106H1108.09V104.862H1081.13V112.569H1069.23V104.862H1061.29V120.106H1037.5V104.862H1027.43V120.106H1003.63V104.862H979.874V112.569H967.974V105.66H966.597V123.274H942.806V104.862H909.835V120.106H897.936V104.862H870.973V112.569H859.074V118.427H835.282V104.862H814.779V105.66H802.044V123.274H778.253V120.106H766.354V104.862H739.39V112.569H727.491V104.862H719.552V120.106H695.76V141.194H1392.84V104.862H1384.23V112.569Z" fill="#88543F"/>
<path d="M1369.05 87.248H1361.1V94.9556H1349.21V87.248H1322.25V102.486H1310.35V105.66H1298.99V112.569H1310.88V104.862H1348.54V118.427H1372.34V112.569H1384.23V104.862H1392.84V103.237V102.486H1369.05V87.248Z" fill="#533134"/>
<path d="M719.552 104.862H727.491V112.569H739.39V104.862H766.354V120.106H778.253V123.274H802.044V105.66H790.988V87.248H789.611V94.9556H777.712V87.248H740.062V100.813H716.263V94.9556H704.371V87.248H695.76V103.237V104.862V120.106H719.552V104.862Z" fill="#533134"/>
<path d="M979.874 112.569V104.862H1003.63V120.106H1027.43V104.862H1037.5V120.106H1061.29V104.862H1069.23V112.569H1081.13V104.862H1108.09V120.106H1119.99V123.274H1143.78V105.66H1122.01V87.248H1120.63V94.9556H1108.73V87.248H1084.97V102.486H1061.17V87.248H1051.1V102.486H1027.31V87.248H1019.37V94.9556H1007.47V87.248H980.511V102.486H968.611V105.66H967.974V112.569H979.874Z" fill="#533134"/>
<path d="M835.282 118.427H859.074V112.569H870.973V104.862H897.936V120.106H909.835V104.862H942.806V123.274H966.597V105.66H944.82V87.248H922.303V100.813H898.511V94.9556H886.612V87.248H859.649V102.486H847.75V87.248H814.779V104.862H835.282V118.427Z" fill="#533134"/>
<path d="M1166.3 118.427H1190.09V112.569H1201.99V104.862H1228.95V120.106H1240.85V104.862H1273.82V123.274H1297.62V105.66H1286.55V87.248H1253.32V100.813H1229.52V94.9556H1217.63V87.248H1190.66V102.486H1178.77V87.248H1145.8V104.862H1166.3V118.427Z" fill="#533134"/>
<path d="M1384.23 75.6491H1372.34V81.5066H1348.54V70.0306V67.9415H1310.88V75.6491H1298.99V67.9415H1297.62V74.8709V86.3469H1273.82V74.8709V67.9415H1240.85V71.7032V83.1792H1228.95V71.7032V67.9415H1201.99V75.6491H1190.09V81.5066H1166.3V70.0306V67.9415H1143.78V74.8709V86.3469H1119.99V83.1792H1108.09V71.7032V67.9415H1081.13V75.6491H1069.23V67.9415H1061.29V71.7032V83.1792H1037.5V71.7032V67.9415H1027.43V71.7032V83.1792H1003.63V71.7032V67.9415H979.874V75.6491H967.974V67.9415H966.597V74.8709V86.3469H942.806V74.8709V67.9415H909.835V71.7032V83.1792H897.936V71.7032V67.9415H870.973V75.6491H859.074V81.5066H835.282V70.0306V67.9415H802.044V74.8709V86.3469H778.253V83.1792H766.354V71.7032V67.9415H739.39V75.6491H727.491V67.9415H719.552V71.7032V83.1792H695.76V83.2816V87.2481H704.371V94.9557H716.263V100.813H740.062V87.2481H777.712V94.9557H789.611V87.2481H790.988V105.66H802.044H814.779V104.862V87.2481H847.75V102.486H859.649V87.2481H886.612V94.9557H898.511V100.813H922.303V87.2481H944.82V105.66H966.597H967.974H968.611V102.486H980.511V87.2481H1007.47V94.9557H1019.37V87.2481H1027.31V102.486H1051.1V87.2481H1061.17V102.486H1084.97V87.2481H1108.73V94.9557H1120.63V87.2481H1122.01V105.66H1143.78H1145.8V104.862V87.2481H1178.77V102.486H1190.66V87.2481H1217.63V94.9557H1229.52V100.813H1253.32V87.2481H1286.55V105.66H1297.62H1298.99H1310.35V102.486H1322.25V87.2481H1349.21V94.9557H1361.1V87.2481H1369.05V102.486H1392.84V87.2481V67.9415H1384.23V75.6491Z" fill="#7C4F3F"/>
<path d="M870.973 56.4655V64.1731H859.074V70.0305H835.282V81.5066H859.074V75.6491H870.973V67.9415H897.936V56.4655H870.973Z" fill="#87553F"/>
<path d="M1201.99 56.4655V64.1731H1190.09V70.0305H1166.3V81.5066H1190.09V75.6491H1201.99V67.9415H1228.95V56.4655H1201.99Z" fill="#87553F"/>
<path d="M1384.23 64.1731H1372.34V70.0306H1348.54V81.5067H1372.34V75.6492H1384.23V67.9416H1392.84V65.6682V61.7018V58.5341H1384.23V64.1731Z" fill="#87553F"/>
<path d="M1240.85 71.7032V83.1792H1228.95V71.7032H1240.85Z" fill="#87553F"/>
<path d="M1061.29 71.7032V83.1792H1037.5V71.7032H1061.29Z" fill="#87553F"/>
<path d="M1069.23 67.9415V75.6491H1081.13V67.9415H1108.09V56.4655H1084.97V58.534H1081.13V64.1731H1069.23V58.534H1061.29V67.9415H1069.23Z" fill="#87553F"/>
<path d="M1003.63 83.1792H1027.43V71.7032H1003.63V83.1792Z" fill="#87553F"/>
<path d="M1119.99 71.7032H1108.09V83.1792H1119.99V86.3469H1143.78V74.8709H1119.99V71.7032Z" fill="#87553F"/>
<path d="M719.552 71.7032V83.1792H695.76V71.7032H719.552Z" fill="#87553F"/>
<path d="M1273.82 67.9415V56.4655H1253.32V56.8614H1240.85V67.9415H1273.82Z" fill="#87553F"/>
<path d="M1298.99 67.9415V75.6491H1310.88V67.9415H1348.54V56.4655H1322.25V58.534H1310.88V64.1731H1298.99V61.7017H1297.62V67.9415H1298.99Z" fill="#87553F"/>
<path d="M1297.62 74.8708V86.3469H1273.82V74.8708H1297.62Z" fill="#87553F"/>
<path d="M1166.3 67.9415V56.4655H1145.8V61.7017H1143.78V67.9415H1166.3Z" fill="#87553F"/>
<path d="M1037.5 58.5341V67.9416H1027.43V58.5341H1037.5Z" fill="#87553F"/>
<path d="M835.282 67.9415V56.4655H814.779V61.7017H802.044V67.9415H835.282Z" fill="#87553F"/>
<path d="M778.253 71.7032H766.354V83.1792H778.253V86.3469H802.044V74.8709H778.253V71.7032Z" fill="#87553F"/>
<path d="M727.491 67.9415V75.6491H739.39V67.9415H766.354V56.4655H740.062V56.8614H739.39V64.1731H727.491V56.8614H719.552V67.9415H727.491Z" fill="#87553F"/>
<path d="M942.806 67.9415V56.4655H922.303V56.8614H909.835V67.9415H942.806Z" fill="#87553F"/>
<path d="M909.835 71.7032V83.1792H897.936V71.7032H909.835Z" fill="#87553F"/>
<path d="M967.974 67.9415V75.6491H979.873V67.9415H1003.63V56.4655H980.511V58.534H979.873V64.1731H967.974V61.7017H966.597V67.9415H967.974Z" fill="#87553F"/>
<path d="M966.597 74.8708V86.3469H942.806V74.8708H966.597Z" fill="#87553F"/>
<path d="M1108.09 67.9416V71.7032H1119.99V74.8709H1143.78V67.9416V61.7018H1122.01V43.2964H1120.63V51.004H1108.73V43.2964H1084.97V56.4655H1108.09V67.9416Z" fill="#54B847"/>
<path d="M1166.3 67.9416V70.0306H1190.09V64.1731H1201.99V56.4655H1228.95V67.9416V71.7032H1240.85V67.9416V56.8615H1229.52V51.004H1217.63V43.2964H1190.66V58.5341H1178.77V43.2964H1145.8V56.4655H1166.3V67.9416Z" fill="#54B847"/>
<path d="M1348.54 67.9416V70.0306H1372.34V64.1731H1384.23V58.5341H1369.05V43.2964H1361.1V51.004H1349.21V43.2964H1322.25V56.4655H1348.54V67.9416Z" fill="#54B847"/>
<path d="M1003.63 67.9416V71.7032H1027.43V67.9416V58.5341H1027.31V43.2964H1019.37V51.004H1007.47V43.2964H980.511V56.4655H1003.63V67.9416Z" fill="#54B847"/>
<path d="M1273.82 67.9416V74.8709H1297.62V67.9416V61.7018H1286.55V43.2964H1253.32V56.4655H1273.82V67.9416Z" fill="#54B847"/>
<path d="M942.806 67.9416V74.8709H966.597V67.9416V61.7018H944.82V43.2964H922.303V56.4655H942.806V67.9416Z" fill="#54B847"/>
<path d="M766.354 67.9416V71.7032H778.253V74.8709H802.044V67.9416V61.7018H790.988V43.2964H789.611V51.004H777.712V43.2964H740.062V56.4655H766.354V67.9416Z" fill="#54B847"/>
<path d="M835.282 67.9416V70.0306H859.074V64.1731H870.973V56.4655H897.936V67.9416V71.7032H909.835V67.9416V56.8615H898.511V51.004H886.612V43.2964H859.649V58.5341H847.75V43.2964H814.779V56.4655H835.282V67.9416Z" fill="#54B847"/>
<path d="M1310.88 64.1731V58.5341H1310.35V61.7018H1298.99V64.1731H1310.88Z" fill="#54B847"/>
<path d="M1037.5 71.7032H1061.29V67.9416V58.5341H1061.17V43.2964H1051.1V58.5341H1037.5V67.9416V71.7032Z" fill="#54B847"/>
<path d="M1081.13 58.5341V64.1731H1069.23V58.5341H1081.13Z" fill="#54B847"/>
<path d="M739.39 56.8615V64.1731H727.491V56.8615H739.39Z" fill="#54B847"/>
<path d="M719.552 67.9416V56.8615H716.263V51.004H704.371V43.2964H695.76V44.0883V46.3548V56.4655V61.7018V67.9416V71.7032H719.552V67.9416Z" fill="#54B847"/>
<path d="M979.874 64.1731V58.5341H968.611V61.7018H967.974V64.1731H979.874Z" fill="#54B847"/>
<path d="M1107.48 11.4351H1091.69H1075.89H1060.09H1044.3H1028.5H1012.71H996.917H981.127H965.316V0.136536H695.76V13.3057V24.7817V34.8856V43.2964H704.371V51.0039H716.263V56.8614H719.552H727.491H739.39H740.062V56.4655V43.2964H777.712V51.0039H789.611V43.2964H790.988V61.7017H802.044H814.779V56.4655V43.2964H847.75V58.534H859.649V43.2964H886.612V51.0039H898.511V56.8614H909.835H922.303V56.4655V43.2964H944.82V61.7017H966.597H967.974H968.611V58.534H979.874H980.511V56.4655V43.2964H1007.47V51.0039H1019.37V43.2964H1027.31V58.534H1027.43H1037.5H1051.1V43.2964H1061.17V58.534H1061.29H1069.23H1081.13H1084.97V56.4655V43.2964H1108.73V51.0039H1120.63V43.2964H1122.01V61.7017H1143.78H1145.8V56.4655V43.2964H1178.77V58.534H1190.66V43.2964H1217.63V51.0039H1229.52V56.8614H1240.85H1253.32V56.4655V43.2964H1286.55V61.7017H1297.62H1298.99H1310.35V58.534H1310.88H1322.25V56.4655V43.2964H1349.21V51.0039H1361.1V43.2964H1369.05V58.534H1384.23H1392.84V56.4655V44.0883V43.2964V24.7817V21.7164V13.3057V0.136536H1123.27V11.4351H1107.48Z" fill="#7AC042"/>
</g>
<g clip-path="url(#clip2_23_261)">
<path d="M-0.239746 141.194H696.843V0.136536H-0.239746V141.194Z" fill="#7C4F3F"/>
<path d="M688.232 112.569H676.339V118.427H652.541V104.862H614.885V112.569H602.992V105.66H601.615V123.274H577.817V104.862H544.853V120.106H532.954V104.862H505.991V112.569H494.092V118.427H470.3V104.862H449.797V105.66H447.783V123.274H423.991V120.106H412.092V104.862H385.129V112.569H373.23V104.862H365.29V120.106H341.499V104.862H331.429V120.106H307.631V104.862H283.874V112.569H271.974V105.66H270.597V123.274H246.806V104.862H213.835V120.106H201.936V104.862H174.973V112.569H163.074V118.427H139.282V104.862H118.779V105.66H106.044V123.274H82.2527V120.106H70.3536V104.862H43.3904V112.569H31.4913V104.862H23.5517V120.106H-0.239746V141.194H696.843V104.862H688.232V112.569Z" fill="#88543F"/>
<path d="M673.051 87.248H665.105V94.9556H653.212V87.248H626.249V102.486H614.35V105.66H602.992V112.569H614.885V104.862H652.541V118.427H676.339V112.569H688.232V104.862H696.843V103.237V102.486H673.051V87.248Z" fill="#533134"/>
<path d="M23.5517 104.862H31.4913V112.569H43.3904V104.862H70.3536V120.106H82.2527V123.274H106.044V105.66H94.9876V87.248H93.6106V94.9556H81.7115V87.248H44.0618V100.813H20.2635V94.9556H8.3712V87.248H-0.239746V103.237V104.862V120.106H23.5517V104.862Z" fill="#533134"/>
<path d="M283.874 112.569V104.862H307.631V120.106H331.429V104.862H341.499V120.106H365.29V104.862H373.23V112.569H385.129V104.862H412.092V120.106H423.991V123.274H447.783V105.66H426.005V87.248H424.629V94.9556H412.729V87.248H388.972V102.486H365.174V87.248H355.104V102.486H331.312V87.248H323.373V94.9556H311.474V87.248H284.511V102.486H272.611V105.66H271.974V112.569H283.874Z" fill="#533134"/>
<path d="M139.282 118.427H163.074V112.569H174.973V104.862H201.936V120.106H213.835V104.862H246.806V123.274H270.597V105.66H248.82V87.248H226.303V100.813H202.511V94.9556H190.612V87.248H163.649V102.486H151.75V87.248H118.779V104.862H139.282V118.427Z" fill="#533134"/>
<path d="M470.3 118.427H494.092V112.569H505.991V104.862H532.954V120.106H544.853V104.862H577.817V123.274H601.615V105.66H590.552V87.248H557.321V100.813H533.522V94.9556H521.63V87.248H494.66V102.486H482.768V87.248H449.797V104.862H470.3V118.427Z" fill="#533134"/>
<path d="M688.232 75.6491H676.339V81.5066H652.541V70.0306V67.9415H614.885V75.6491H602.992V67.9415H601.615V74.8709V86.3469H577.817V74.8709V67.9415H544.853V71.7032V83.1792H532.954V71.7032V67.9415H505.991V75.6491H494.092V81.5066H470.3V70.0306V67.9415H447.783V74.8709V86.3469H423.991V83.1792H412.092V71.7032V67.9415H385.129V75.6491H373.23V67.9415H365.29V71.7032V83.1792H341.499V71.7032V67.9415H331.429V71.7032V83.1792H307.631V71.7032V67.9415H283.874V75.6491H271.974V67.9415H270.597V74.8709V86.3469H246.806V74.8709V67.9415H213.835V71.7032V83.1792H201.936V71.7032V67.9415H174.973V75.6491H163.074V81.5066H139.282V70.0306V67.9415H106.044V74.8709V86.3469H82.2527V83.1792H70.3536V71.7032V67.9415H43.3904V75.6491H31.4913V67.9415H23.5517V71.7032V83.1792H-0.239746V83.2816V87.2481H8.3712V94.9557H20.2635V100.813H44.0618V87.2481H81.7115V94.9557H93.6106V87.2481H94.9876V105.66H106.044H118.779V104.862V87.2481H151.75V102.486H163.649V87.2481H190.612V94.9557H202.511V100.813H226.303V87.2481H248.82V105.66H270.597H271.974H272.611V102.486H284.511V87.2481H311.474V94.9557H323.373V87.2481H331.312V102.486H355.104V87.2481H365.174V102.486H388.972V87.2481H412.729V94.9557H424.629V87.2481H426.005V105.66H447.783H449.797V104.862V87.2481H482.768V102.486H494.66V87.2481H521.63V94.9557H533.522V100.813H557.321V87.2481H590.552V105.66H601.615H602.992H614.35V102.486H626.249V87.2481H653.212V94.9557H665.105V87.2481H673.051V102.486H696.843V87.2481V67.9415H688.232V75.6491Z" fill="#7C4F3F"/>
<path d="M174.973 56.4655V64.1731H163.074V70.0305H139.282V81.5066H163.074V75.6491H174.973V67.9415H201.936V56.4655H174.973Z" fill="#87553F"/>
<path d="M505.991 56.4655V64.1731H494.092V70.0305H470.3V81.5066H494.092V75.6491H505.991V67.9415H532.954V56.4655H505.991Z" fill="#87553F"/>
<path d="M688.232 64.1731H676.339V70.0306H652.541V81.5067H676.339V75.6492H688.232V67.9416H696.842V65.6682V61.7018V58.5341H688.232V64.1731Z" fill="#87553F"/>
<path d="M544.853 71.7032V83.1792H532.954V71.7032H544.853Z" fill="#87553F"/>
<path d="M365.29 71.7032V83.1792H341.499V71.7032H365.29Z" fill="#87553F"/>
<path d="M373.23 67.9415V75.6491H385.129V67.9415H412.092V56.4655H388.972V58.534H385.129V64.1731H373.23V58.534H365.29V67.9415H373.23Z" fill="#87553F"/>
<path d="M307.631 83.1792H331.429V71.7032H307.631V83.1792Z" fill="#87553F"/>
<path d="M423.991 71.7032H412.092V83.1792H423.991V86.3469H447.783V74.8709H423.991V71.7032Z" fill="#87553F"/>
<path d="M23.5517 71.7032V83.1792H-0.239746V71.7032H23.5517Z" fill="#87553F"/>
<path d="M577.817 67.9415V56.4655H557.321V56.8614H544.853V67.9415H577.817Z" fill="#87553F"/>
<path d="M602.992 67.9415V75.6491H614.884V67.9415H652.541V56.4655H626.249V58.534H614.884V64.1731H602.992V61.7017H601.615V67.9415H602.992Z" fill="#87553F"/>
<path d="M601.615 74.8708V86.3469H577.817V74.8708H601.615Z" fill="#87553F"/>
<path d="M470.3 67.9415V56.4655H449.797V61.7017H447.783V67.9415H470.3Z" fill="#87553F"/>
<path d="M341.499 58.5341V67.9416H331.429V58.5341H341.499Z" fill="#87553F"/>
<path d="M139.282 67.9415V56.4655H118.779V61.7017H106.044V67.9415H139.282Z" fill="#87553F"/>
<path d="M82.2527 71.7032H70.3536V83.1792H82.2527V86.3469H106.044V74.8709H82.2527V71.7032Z" fill="#87553F"/>
<path d="M31.4913 67.9415V75.6491H43.3904V67.9415H70.3536V56.4655H44.0618V56.8614H43.3904V64.1731H31.4913V56.8614H23.5517V67.9415H31.4913Z" fill="#87553F"/>
<path d="M246.806 67.9415V56.4655H226.303V56.8614H213.835V67.9415H246.806Z" fill="#87553F"/>
<path d="M213.835 71.7032V83.1792H201.936V71.7032H213.835Z" fill="#87553F"/>
<path d="M271.974 67.9415V75.6491H283.873V67.9415H307.631V56.4655H284.511V58.534H283.873V64.1731H271.974V61.7017H270.597V67.9415H271.974Z" fill="#87553F"/>
<path d="M270.597 74.8708V86.3469H246.806V74.8708H270.597Z" fill="#87553F"/>
<path d="M412.092 67.9416V71.7032H423.991V74.8709H447.783V67.9416V61.7018H426.005V43.2964H424.628V51.004H412.729V43.2964H388.972V56.4655H412.092V67.9416Z" fill="#54B847"/>
<path d="M470.3 67.9416V70.0306H494.092V64.1731H505.991V56.4655H532.954V67.9416V71.7032H544.853V67.9416V56.8615H533.522V51.004H521.63V43.2964H494.66V58.5341H482.768V43.2964H449.797V56.4655H470.3V67.9416Z" fill="#54B847"/>
<path d="M652.541 67.9416V70.0306H676.339V64.1731H688.232V58.5341H673.051V43.2964H665.105V51.004H653.212V43.2964H626.249V56.4655H652.541V67.9416Z" fill="#54B847"/>
<path d="M307.631 67.9416V71.7032H331.429V67.9416V58.5341H331.313V43.2964H323.373V51.004H311.474V43.2964H284.511V56.4655H307.631V67.9416Z" fill="#54B847"/>
<path d="M577.817 67.9416V74.8709H601.615V67.9416V61.7018H590.552V43.2964H557.321V56.4655H577.817V67.9416Z" fill="#54B847"/>
<path d="M246.806 67.9416V74.8709H270.597V67.9416V61.7018H248.82V43.2964H226.303V56.4655H246.806V67.9416Z" fill="#54B847"/>
<path d="M70.3536 67.9416V71.7032H82.2527V74.8709H106.044V67.9416V61.7018H94.9876V43.2964H93.6107V51.004H81.7115V43.2964H44.0618V56.4655H70.3536V67.9416Z" fill="#54B847"/>
<path d="M139.282 67.9416V70.0306H163.074V64.1731H174.973V56.4655H201.936V67.9416V71.7032H213.835V67.9416V56.8615H202.511V51.004H190.612V43.2964H163.649V58.5341H151.75V43.2964H118.779V56.4655H139.282V67.9416Z" fill="#54B847"/>
<path d="M614.885 64.1731V58.5341H614.35V61.7018H602.992V64.1731H614.885Z" fill="#54B847"/>
<path d="M341.499 71.7032H365.29V67.9416V58.5341H365.174V43.2964H355.104V58.5341H341.499V67.9416V71.7032Z" fill="#54B847"/>
<path d="M385.129 58.5341V64.1731H373.23V58.5341H385.129Z" fill="#54B847"/>
<path d="M43.3904 56.8615V64.1731H31.4913V56.8615H43.3904Z" fill="#54B847"/>
<path d="M23.5517 67.9416V56.8615H20.2635V51.004H8.3712V43.2964H-0.239746V44.0883V46.3548V56.4655V61.7018V67.9416V71.7032H23.5517V67.9416Z" fill="#54B847"/>
<path d="M283.874 64.1731V58.5341H272.611V61.7018H271.974V64.1731H283.874Z" fill="#54B847"/>
<path d="M411.476 11.4351H395.686H379.889H364.092H348.301H332.504H316.714H300.917H285.127H269.316V0.136536H-0.239746V13.3057V24.7817V34.8856V43.2964H8.3712V51.0039H20.2635V56.8614H23.5517H31.4913H43.3904H44.0618V56.4655V43.2964H81.7115V51.0039H93.6106V43.2964H94.9876V61.7017H106.044H118.779V56.4655V43.2964H151.75V58.534H163.649V43.2964H190.612V51.0039H202.511V56.8614H213.835H226.303V56.4655V43.2964H248.82V61.7017H270.597H271.974H272.611V58.534H283.874H284.511V56.4655V43.2964H311.474V51.0039H323.373V43.2964H331.312V58.534H331.429H341.499H355.104V43.2964H365.174V58.534H365.29H373.23H385.129H388.972V56.4655V43.2964H412.729V51.0039H424.629V43.2964H426.005V61.7017H447.783H449.797V56.4655V43.2964H482.768V58.534H494.66V43.2964H521.63V51.0039H533.522V56.8614H544.853H557.321V56.4655V43.2964H590.552V61.7017H601.615H602.992H614.35V58.534H614.885H626.249V56.4655V43.2964H653.212V51.0039H665.105V43.2964H673.051V58.534H688.232H696.843V56.4655V44.0883V43.2964V24.7817V21.7164V13.3057V0.136536H427.273V11.4351H411.476Z" fill="#7AC042"/>
</g>
</g>
</pattern><clipPath id="clip0_23_261">
<rect width="696" height="142" fill="white" transform="translate(1382)"/>
</clipPath>
<clipPath id="clip1_23_261">
<rect width="696" height="142" fill="white" transform="translate(696)"/>
</clipPath>
<clipPath id="clip2_23_261">
<rect width="696" height="142" fill="white"/>
</clipPath>
</defs>
</svg>
