<svg width="480" height="141" viewBox="0 0 480 141" fill="none" xmlns="http://www.w3.org/2000/svg" xmlns:xlink="http://www.w3.org/1999/xlink">
<rect width="480" height="141" fill="url(#pattern0_23_232)"/>
<defs>
<pattern id="pattern0_23_232" patternUnits="userSpaceOnUse" patternTransform="matrix(696 0 0 142 0 0)" preserveAspectRatio="none" viewBox="0 0 696 142" width="1" height="1">
<g id="pattern0_23_232_inner">
<g clip-path="url(#clip0_23_232)">
<path d="M-0.239746 141.194H696.843V0.136536H-0.239746V141.194Z" fill="#7C4F3F"/>
<path d="M688.232 112.569H676.339V118.427H652.541V104.862H614.885V112.569H602.992V105.66H601.615V123.274H577.817V104.862H544.853V120.106H532.954V104.862H505.991V112.569H494.092V118.427H470.3V104.862H449.797V105.66H447.783V123.274H423.991V120.106H412.092V104.862H385.129V112.569H373.23V104.862H365.29V120.106H341.499V104.862H331.429V120.106H307.631V104.862H283.874V112.569H271.974V105.66H270.597V123.274H246.806V104.862H213.835V120.106H201.936V104.862H174.973V112.569H163.074V118.427H139.282V104.862H118.779V105.66H106.044V123.274H82.2527V120.106H70.3536V104.862H43.3904V112.569H31.4913V104.862H23.5517V120.106H-0.239746V141.194H696.843V104.862H688.232V112.569Z" fill="#88543F"/>
<path d="M673.051 87.248H665.105V94.9556H653.212V87.248H626.249V102.486H614.35V105.66H602.992V112.569H614.885V104.862H652.541V118.427H676.339V112.569H688.232V104.862H696.843V103.237V102.486H673.051V87.248Z" fill="#533134"/>
<path d="M23.5517 104.862H31.4913V112.569H43.3904V104.862H70.3536V120.106H82.2527V123.274H106.044V105.66H94.9876V87.248H93.6106V94.9556H81.7115V87.248H44.0618V100.813H20.2635V94.9556H8.3712V87.248H-0.239746V103.237V104.862V120.106H23.5517V104.862Z" fill="#533134"/>
<path d="M283.874 112.569V104.862H307.631V120.106H331.429V104.862H341.499V120.106H365.29V104.862H373.23V112.569H385.129V104.862H412.092V120.106H423.991V123.274H447.783V105.66H426.005V87.248H424.629V94.9556H412.729V87.248H388.972V102.486H365.174V87.248H355.104V102.486H331.312V87.248H323.373V94.9556H311.474V87.248H284.511V102.486H272.611V105.66H271.974V112.569H283.874Z" fill="#533134"/>
<path d="M139.282 118.427H163.074V112.569H174.973V104.862H201.936V120.106H213.835V104.862H246.806V123.274H270.597V105.66H248.82V87.248H226.303V100.813H202.511V94.9556H190.612V87.248H163.649V102.486H151.75V87.248H118.779V104.862H139.282V118.427Z" fill="#533134"/>
<path d="M470.3 118.427H494.092V112.569H505.991V104.862H532.954V120.106H544.853V104.862H577.817V123.274H601.615V105.66H590.552V87.248H557.321V100.813H533.522V94.9556H521.63V87.248H494.66V102.486H482.768V87.248H449.797V104.862H470.3V118.427Z" fill="#533134"/>
<path d="M688.232 75.6491H676.339V81.5066H652.541V70.0306V67.9415H614.885V75.6491H602.992V67.9415H601.615V74.8709V86.3469H577.817V74.8709V67.9415H544.853V71.7032V83.1792H532.954V71.7032V67.9415H505.991V75.6491H494.092V81.5066H470.3V70.0306V67.9415H447.783V74.8709V86.3469H423.991V83.1792H412.092V71.7032V67.9415H385.129V75.6491H373.23V67.9415H365.29V71.7032V83.1792H341.499V71.7032V67.9415H331.429V71.7032V83.1792H307.631V71.7032V67.9415H283.874V75.6491H271.974V67.9415H270.597V74.8709V86.3469H246.806V74.8709V67.9415H213.835V71.7032V83.1792H201.936V71.7032V67.9415H174.973V75.6491H163.074V81.5066H139.282V70.0306V67.9415H106.044V74.8709V86.3469H82.2527V83.1792H70.3536V71.7032V67.9415H43.3904V75.6491H31.4913V67.9415H23.5517V71.7032V83.1792H-0.239746V83.2816V87.2481H8.3712V94.9557H20.2635V100.813H44.0618V87.2481H81.7115V94.9557H93.6106V87.2481H94.9876V105.66H106.044H118.779V104.862V87.2481H151.75V102.486H163.649V87.2481H190.612V94.9557H202.511V100.813H226.303V87.2481H248.82V105.66H270.597H271.974H272.611V102.486H284.511V87.2481H311.474V94.9557H323.373V87.2481H331.312V102.486H355.104V87.2481H365.174V102.486H388.972V87.2481H412.729V94.9557H424.629V87.2481H426.005V105.66H447.783H449.797V104.862V87.2481H482.768V102.486H494.66V87.2481H521.63V94.9557H533.522V100.813H557.321V87.2481H590.552V105.66H601.615H602.992H614.35V102.486H626.249V87.2481H653.212V94.9557H665.105V87.2481H673.051V102.486H696.843V87.2481V67.9415H688.232V75.6491Z" fill="#7C4F3F"/>
<path d="M174.973 56.4655V64.1731H163.074V70.0305H139.282V81.5066H163.074V75.6491H174.973V67.9415H201.936V56.4655H174.973Z" fill="#87553F"/>
<path d="M505.991 56.4655V64.1731H494.091V70.0305H470.3V81.5066H494.091V75.6491H505.991V67.9415H532.954V56.4655H505.991Z" fill="#87553F"/>
<path d="M688.232 64.1731H676.339V70.0306H652.541V81.5067H676.339V75.6492H688.232V67.9416H696.842V65.6682V61.7018V58.5341H688.232V64.1731Z" fill="#87553F"/>
<path d="M544.853 71.7032V83.1792H532.954V71.7032H544.853Z" fill="#87553F"/>
<path d="M365.29 71.7032V83.1792H341.499V71.7032H365.29Z" fill="#87553F"/>
<path d="M373.23 67.9415V75.6491H385.129V67.9415H412.092V56.4655H388.972V58.534H385.129V64.1731H373.23V58.534H365.29V67.9415H373.23Z" fill="#87553F"/>
<path d="M307.631 83.1792H331.429V71.7032H307.631V83.1792Z" fill="#87553F"/>
<path d="M423.991 71.7032H412.092V83.1792H423.991V86.3469H447.783V74.8709H423.991V71.7032Z" fill="#87553F"/>
<path d="M23.5517 71.7032V83.1792H-0.239746V71.7032H23.5517Z" fill="#87553F"/>
<path d="M577.817 67.9415V56.4655H557.321V56.8614H544.853V67.9415H577.817Z" fill="#87553F"/>
<path d="M602.992 67.9415V75.6491H614.884V67.9415H652.541V56.4655H626.249V58.534H614.884V64.1731H602.992V61.7017H601.615V67.9415H602.992Z" fill="#87553F"/>
<path d="M601.615 74.8708V86.3469H577.817V74.8708H601.615Z" fill="#87553F"/>
<path d="M470.3 67.9415V56.4655H449.797V61.7017H447.783V67.9415H470.3Z" fill="#87553F"/>
<path d="M341.499 58.5341V67.9416H331.429V58.5341H341.499Z" fill="#87553F"/>
<path d="M139.282 67.9415V56.4655H118.779V61.7017H106.044V67.9415H139.282Z" fill="#87553F"/>
<path d="M82.2527 71.7032H70.3535V83.1792H82.2527V86.3469H106.044V74.8709H82.2527V71.7032Z" fill="#87553F"/>
<path d="M31.4914 67.9415V75.6491H43.3905V67.9415H70.3536V56.4655H44.0618V56.8614H43.3905V64.1731H31.4914V56.8614H23.5518V67.9415H31.4914Z" fill="#87553F"/>
<path d="M246.806 67.9415V56.4655H226.303V56.8614H213.835V67.9415H246.806Z" fill="#87553F"/>
<path d="M213.835 71.7032V83.1792H201.936V71.7032H213.835Z" fill="#87553F"/>
<path d="M271.974 67.9415V75.6491H283.873V67.9415H307.631V56.4655H284.511V58.534H283.873V64.1731H271.974V61.7017H270.597V67.9415H271.974Z" fill="#87553F"/>
<path d="M270.597 74.8708V86.3469H246.806V74.8708H270.597Z" fill="#87553F"/>
<path d="M412.092 67.9416V71.7032H423.991V74.8709H447.783V67.9416V61.7018H426.005V43.2964H424.628V51.004H412.729V43.2964H388.972V56.4655H412.092V67.9416Z" fill="#54B847"/>
<path d="M470.3 67.9416V70.0306H494.092V64.1731H505.991V56.4655H532.954V67.9416V71.7032H544.853V67.9416V56.8615H533.522V51.004H521.63V43.2964H494.66V58.5341H482.768V43.2964H449.797V56.4655H470.3V67.9416Z" fill="#54B847"/>
<path d="M652.541 67.9416V70.0306H676.339V64.1731H688.232V58.5341H673.051V43.2964H665.105V51.004H653.212V43.2964H626.249V56.4655H652.541V67.9416Z" fill="#54B847"/>
<path d="M307.631 67.9416V71.7032H331.429V67.9416V58.5341H331.312V43.2964H323.373V51.004H311.474V43.2964H284.51V56.4655H307.631V67.9416Z" fill="#54B847"/>
<path d="M577.817 67.9416V74.8709H601.615V67.9416V61.7018H590.552V43.2964H557.321V56.4655H577.817V67.9416Z" fill="#54B847"/>
<path d="M246.806 67.9416V74.8709H270.597V67.9416V61.7018H248.82V43.2964H226.303V56.4655H246.806V67.9416Z" fill="#54B847"/>
<path d="M70.3536 67.9416V71.7032H82.2527V74.8709H106.044V67.9416V61.7018H94.9876V43.2964H93.6107V51.004H81.7115V43.2964H44.0618V56.4655H70.3536V67.9416Z" fill="#54B847"/>
<path d="M139.282 67.9416V70.0306H163.074V64.1731H174.973V56.4655H201.936V67.9416V71.7032H213.835V67.9416V56.8615H202.511V51.004H190.612V43.2964H163.649V58.5341H151.75V43.2964H118.779V56.4655H139.282V67.9416Z" fill="#54B847"/>
<path d="M614.885 64.1731V58.5341H614.35V61.7018H602.992V64.1731H614.885Z" fill="#54B847"/>
<path d="M341.499 71.7032H365.29V67.9416V58.5341H365.174V43.2964H355.104V58.5341H341.499V67.9416V71.7032Z" fill="#54B847"/>
<path d="M385.129 58.5341V64.1731H373.23V58.5341H385.129Z" fill="#54B847"/>
<path d="M43.3903 56.8615V64.1731H31.4912V56.8615H43.3903Z" fill="#54B847"/>
<path d="M23.5517 67.9416V56.8615H20.2635V51.004H8.3712V43.2964H-0.239746V44.0883V46.3548V56.4655V61.7018V67.9416V71.7032H23.5517V67.9416Z" fill="#54B847"/>
<path d="M283.874 64.1731V58.5341H272.611V61.7018H271.974V64.1731H283.874Z" fill="#54B847"/>
<path d="M411.476 11.4351H395.686H379.889H364.092H348.301H332.504H316.714H300.917H285.127H269.316V0.136536H-0.239746V13.3057V24.7817V34.8856V43.2964H8.3712V51.0039H20.2635V56.8614H23.5517H31.4913H43.3904H44.0618V56.4655V43.2964H81.7115V51.0039H93.6106V43.2964H94.9876V61.7017H106.044H118.779V56.4655V43.2964H151.75V58.534H163.649V43.2964H190.612V51.0039H202.511V56.8614H213.835H226.303V56.4655V43.2964H248.82V61.7017H270.597H271.974H272.611V58.534H283.874H284.511V56.4655V43.2964H311.474V51.0039H323.373V43.2964H331.312V58.534H331.429H341.499H355.104V43.2964H365.174V58.534H365.29H373.23H385.129H388.972V56.4655V43.2964H412.729V51.0039H424.629V43.2964H426.005V61.7017H447.783H449.797V56.4655V43.2964H482.768V58.534H494.66V43.2964H521.63V51.0039H533.522V56.8614H544.853H557.321V56.4655V43.2964H590.552V61.7017H601.615H602.992H614.35V58.534H614.885H626.249V56.4655V43.2964H653.212V51.0039H665.105V43.2964H673.051V58.534H688.232H696.843V56.4655V44.0883V43.2964V24.7817V21.7164V13.3057V0.136536H427.273V11.4351H411.476Z" fill="#7AC042"/>
</g>
</g>
</pattern><clipPath id="clip0_23_232">
<rect width="696" height="142" fill="white"/>
</clipPath>
</defs>
</svg>
