<svg width="1920" height="112" viewBox="0 0 1920 112" fill="none" xmlns="http://www.w3.org/2000/svg">
<path d="M0 57L424 57" stroke="white" stroke-width="6"/>
<path d="M531.5 57H908" stroke="white" stroke-width="6"/>
<circle cx="478.5" cy="55.5" r="52.5" fill="white" stroke="white" stroke-width="6"/>
<circle cx="961.5" cy="56.5" r="52.5" fill="white" stroke="white" stroke-width="6"/>
<circle cx="1409.5" cy="55.5" r="52.5" fill="white" stroke="white" stroke-width="6"/>
<path d="M476.408 78V37.04L480.888 41.52H467.448V33.2H486.776V78H476.408Z" fill="#D31427"/>
<path d="M944.112 80V73.28L961.392 56.96C962.757 55.7227 963.76 54.6133 964.4 53.632C965.04 52.6507 965.467 51.7547 965.68 50.944C965.936 50.1333 966.064 49.3867 966.064 48.704C966.064 46.912 965.445 45.5467 964.208 44.608C963.013 43.6267 961.243 43.136 958.896 43.136C957.019 43.136 955.269 43.4987 953.648 44.224C952.069 44.9493 950.725 46.08 949.616 47.616L942.064 42.752C943.771 40.192 946.16 38.1653 949.232 36.672C952.304 35.1787 955.845 34.432 959.856 34.432C963.184 34.432 966.085 34.9867 968.56 36.096C971.077 37.1627 973.019 38.6773 974.384 40.64C975.792 42.6027 976.496 44.9493 976.496 47.68C976.496 49.1307 976.304 50.5813 975.92 52.032C975.579 53.44 974.853 54.9333 973.744 56.512C972.677 58.0907 971.099 59.8613 969.008 61.824L954.672 75.328L952.688 71.552H977.968V80H944.112Z" fill="#D31427"/>
<path d="M1407.02 79.768C1403.91 79.768 1400.82 79.3627 1397.74 78.552C1394.67 77.6987 1392.07 76.504 1389.94 74.968L1393.97 67.032C1395.67 68.2693 1397.66 69.2507 1399.92 69.976C1402.18 70.7013 1404.46 71.064 1406.77 71.064C1409.37 71.064 1411.42 70.552 1412.91 69.528C1414.41 68.504 1415.15 67.096 1415.15 65.304C1415.15 63.5973 1414.49 62.2533 1413.17 61.272C1411.85 60.2907 1409.71 59.8 1406.77 59.8H1402.03V52.952L1414.51 38.808L1415.66 42.52H1392.18V34.2H1423.54V40.92L1411.12 55.064L1405.87 52.056H1408.88C1414.38 52.056 1418.54 53.2933 1421.36 55.768C1424.18 58.2427 1425.58 61.4213 1425.58 65.304C1425.58 67.8213 1424.92 70.1893 1423.6 72.408C1422.28 74.584 1420.25 76.3547 1417.52 77.72C1414.79 79.0853 1411.29 79.768 1407.02 79.768Z" fill="#D31427"/>
<path d="M1016 57H1356.5" stroke="white" stroke-width="6"/>
<path d="M1464 58H1920" stroke="white" stroke-width="6"/>
</svg>
