<svg width="83" height="482" viewBox="0 0 83 482" fill="none" xmlns="http://www.w3.org/2000/svg">
<circle cx="39.5" cy="39.5" r="37.3649" stroke="white" stroke-width="4.27027"/>
<circle cx="39.5" cy="241.5" r="37.3649" stroke="white" stroke-width="4.27027"/>
<circle cx="43.5" cy="442.5" r="37.3649" stroke="white" stroke-width="4.27027"/>
<path d="M35.6958 55V25.8483L38.8843 29.0368H29.3188V23.1153H43.0748V55H35.6958Z" fill="white"/>
<path d="M28.5031 257V252.217L40.8015 240.602C41.7732 239.722 42.4868 238.932 42.9423 238.234C43.3978 237.535 43.7015 236.897 43.8533 236.321C44.0355 235.744 44.1266 235.212 44.1266 234.726C44.1266 233.451 43.6863 232.479 42.8057 231.811C41.9554 231.113 40.6952 230.763 39.0251 230.763C37.689 230.763 36.4439 231.022 35.29 231.538C34.1665 232.054 33.2099 232.859 32.4204 233.952L27.0455 230.49C28.2602 228.668 29.9607 227.226 32.1471 226.163C34.3335 225.1 36.8539 224.569 39.7083 224.569C42.0769 224.569 44.1418 224.963 45.9031 225.753C47.6947 226.512 49.0763 227.59 50.0481 228.987C51.0502 230.384 51.5512 232.054 51.5512 233.997C51.5512 235.03 51.4146 236.062 51.1413 237.095C50.8983 238.097 50.3821 239.16 49.5926 240.283C48.8334 241.407 47.7099 242.667 46.2219 244.064L36.0188 253.675L34.6068 250.987H52.5988V257H28.5031Z" fill="white"/>
<path d="M43.1162 458.547C40.8994 458.547 38.6979 458.258 36.5115 457.681C34.3251 457.074 32.4728 456.224 30.9545 455.13L33.8241 449.482C35.0387 450.363 36.4508 451.061 38.0602 451.578C39.6696 452.094 41.2942 452.352 42.934 452.352C44.7863 452.352 46.2439 451.987 47.3067 451.259C48.3696 450.53 48.901 449.528 48.901 448.252C48.901 447.038 48.4303 446.081 47.4889 445.383C46.5476 444.684 45.0293 444.335 42.934 444.335H39.5633V439.461L48.4455 429.395L49.2654 432.037H32.5487V426.115H54.868V430.898L46.0314 440.964L42.2963 438.824H44.4371C48.3544 438.824 51.3151 439.704 53.3193 441.466C55.3235 443.227 56.3256 445.489 56.3256 448.252C56.3256 450.044 55.8549 451.729 54.9135 453.308C53.9722 454.857 52.5298 456.117 50.5863 457.089C48.6429 458.061 46.1528 458.547 43.1162 458.547Z" fill="white"/>
<line x1="39.9999" y1="76.9764" x2="40.9842" y2="201.977" stroke="white" stroke-width="6"/>
<line x1="39.9991" y1="278.928" x2="42.9983" y2="403.892" stroke="white" stroke-width="6"/>
</svg>
